<?xml version="1.0" encoding="UTF-8" standalone="no"?>
<!-- Created with Inkscape (http://www.inkscape.org/) -->

<svg
   xmlns:dc="http://purl.org/dc/elements/1.1/"
   xmlns:cc="http://creativecommons.org/ns#"
   xmlns:rdf="http://www.w3.org/1999/02/22-rdf-syntax-ns#"
   xmlns:svg="http://www.w3.org/2000/svg"
   xmlns="http://www.w3.org/2000/svg"
   xmlns:sodipodi="http://sodipodi.sourceforge.net/DTD/sodipodi-0.dtd"
   xmlns:inkscape="http://www.inkscape.org/namespaces/inkscape"
   version="1.1"
   id="svg2"
   xml:space="preserve"
   width="600"
   height="600"
   viewBox="0 0 599.99999 599.99999"
   sodipodi:docname="tkd-scoreboard.svg"
   inkscape:version="0.92.5 (2060ec1f9f, 2020-04-08)"><metadata
     id="metadata8"><rdf:RDF><cc:Work
         rdf:about=""><dc:format>image/svg+xml</dc:format><dc:type
           rdf:resource="http://purl.org/dc/dcmitype/StillImage" /><dc:title></dc:title></cc:Work></rdf:RDF></metadata><defs
     id="defs6" /><sodipodi:namedview
     pagecolor="#ffffff"
     bordercolor="#666666"
     borderopacity="1"
     objecttolerance="10"
     gridtolerance="10"
     guidetolerance="10"
     inkscape:pageopacity="0"
     inkscape:pageshadow="2"
     inkscape:window-width="1920"
     inkscape:window-height="1019"
     id="namedview4"
     showgrid="false"
     inkscape:pagecheckerboard="true"
     borderlayer="true"
     inkscape:zoom="1"
     inkscape:cx="348.83132"
     inkscape:cy="291.75879"
     inkscape:window-x="0"
     inkscape:window-y="30"
     inkscape:window-maximized="1"
     inkscape:current-layer="g12" /><g
     id="g10"
     inkscape:groupmode="layer"
     inkscape:label="ink_ext_XXXXXX"
     transform="matrix(1.3333333,0,0,-1.3333333,0,599.99995)"><g
       id="g12"
       transform="matrix(0.18750028,0,0,0.18750028,-868.64413,-877.11869)"><g
         id="g18"
         transform="scale(1.22699)" /><path
         d="m 6309.3335,4877.2889 c 59.2424,28.1249 104.6023,76.4773 157.9048,114.1421 53.0549,37.5074 115.8749,62.2348 162.4498,108.8097 34.92,34.9198 62.1224,76.2297 91.9574,114.8395 30.06,38.8799 49.7475,83.4747 74.4974,125.8421 24.6375,42.2098 75.9149,71.9097 95.1299,117.3146 19.9125,47.0698 -2.2725,108.4496 11.0475,157.3194 13.365,49.0273 46.8,92.8797 53.4825,143.4145 6.6374,50.0848 -12.735,101.1822 -12.735,152.437 0,51.1423 28.4174,103.3196 21.8249,153.2919 -6.6599,50.4223 -31.8149,97.6947 -45.1124,146.6095 -13.275,48.7798 -32.13,95.2647 -51.9524,142.267 -19.125,45.3148 -32.6025,93.1272 -57.15,135.2695 -24.6375,42.2999 -57.2399,79.3797 -87.1874,118.2146 -29.7225,38.5649 -62.8199,74.0247 -97.6049,108.9446 -34.7849,34.8974 -74.6999,62.1673 -113.1749,92.0247 -38.7224,30.0824 -82.8449,48.7123 -125.0548,73.4847 -42.0525,24.7049 -83.3849,45.8324 -128.6549,65.1148 -46.8449,19.9574 -85.2974,60.7948 -133.9423,74.2272 -48.8025,13.4775 -100.1474,17.2125 -150.4799,24.0524 -49.8824,6.795 -100.3049,-3.645 -151.3753,-3.4425 -47.061,-0.495 -87.9794,-11.9249 -132.3404,-24.0524 -44.8627,-12.2399 -92.1756,-12.5774 -132.4281,-35.9323 -39.7552,-23.0625 -76.8576,-50.5799 -110.3129,-83.7222 -33.5677,-33.2324 -57.2309,-72.7648 -80.7074,-112.4546 -23.7554,-40.1849 -60.5586,-76.1848 -73.1856,-121.1396 -12.4763,-44.4149 0.648,-94.2972 -0.1913,-141.547 -0.8932,-50.2873 -9.648,-102.3071 4.0275,-150.142 13.7227,-47.9923 38.286,-94.2296 64.7504,-136.642 26.3723,-42.2773 72.702,-67.3872 109.8134,-101.0471 44.9235,-40.7249 76.4887,-100.6872 129.4086,-123.6371 53.3407,-23.1074 122.8791,-0.2925 180.2226,-14.1974 56.8102,-13.77 109.3611,-46.7549 166.0386,-60.1873 47.8799,-11.34 97.4473,-12.51 139.3873,-29.8574 44.01,-18.18 80.5724,-51.1423 118.9799,-78.6597 36.8099,-26.3699 63.8999,-64.1473 96.4124,-101.6097 34.7624,-40.0723 79.5374,-73.5072 103.2974,-120.127 23.8724,-46.8674 28.0349,-101.9472 39.8924,-153.3595 11.7,-50.8048 11.835,-101.7446 10.89,-154.9794 -0.945,-52.2899 -14.085,-98.7297 -26.2125,-147.217 -12.5325,-50.2198 5.8725,-112.2971 -17.3025,-157.072 -23.6024,-45.6073 -71.1674,-78.0972 -104.3098,-116.5946"
         style="fill:#2a8ecd;fill-opacity:1;fill-rule:nonzero;stroke:none;stroke-width:0.22499947"
         id="path22"
         inkscape:connector-curvature="0" /><path
         d="m 5332.6208,6906.0617 c -57.6787,-27.3824 -112.1714,-83.4747 -164.0586,-120.172 -51.6554,-36.4949 -93.5639,-81.6073 -138.9081,-126.9671 -34.0042,-33.9974 -70.8142,-62.8423 -99.8796,-100.4171 -29.2635,-37.8674 -50.283,-79.3123 -74.3737,-120.5546 -24.0075,-41.1074 -77.5237,-68.0623 -96.2302,-112.2746 -19.3837,-45.8323 1.089,-105.3896 -11.8889,-152.9995 -13.0118,-47.7223 -23.0805,-93.6671 -29.5875,-142.852 -6.4507,-48.7573 -35.6557,-95.8046 -35.6557,-145.7094 0,-49.7924 5.6812,-99.8322 12.1027,-148.4995 6.48,-49.0723 21.474,-96.8847 34.4317,-144.4945 12.9195,-47.4973 24.552,-96.1646 43.8547,-141.907 18.6233,-44.1223 41.1502,-86.8497 65.0565,-127.8895 23.9917,-41.1749 40.1579,-89.4822 69.3044,-127.3046 28.9485,-37.5523 89.2934,-47.7673 123.1626,-81.7647 33.867,-33.9749 66.2714,-65.4973 103.7226,-94.5672 37.7055,-29.2723 67.5045,-67.7247 108.5984,-91.8671 40.95,-24.0299 79.4137,-53.9773 123.4821,-72.7423 45.6142,-19.4399 95.6249,-26.1899 143.0031,-39.2848 47.5132,-13.095 94.9769,-25.1549 143.9661,-31.8149 48.564,-6.615 97.5442,-18.6524 147.2601,-18.8549 68.9804,0.7425 135.9854,21.3299 198.0178,47.2723 61.9874,25.9199 133.5599,49.1173 182.6098,97.7171 49.2299,48.7349 71.3699,121.0946 97.8749,183.1044 26.505,62.0098 54.7874,128.182 56.0024,197.4593 0.8775,48.9823 -31.4999,93.8022 -44.8199,140.377 -13.365,46.7323 -10.1025,101.4071 -35.865,142.717 -25.6725,41.1523 -53.3699,87.5247 -89.5049,120.2845 -43.7399,39.6674 -112.8599,37.2599 -164.3623,59.6023 -51.9524,22.5 -94.7249,75.1948 -150.5698,88.7397 -55.3027,13.41 -113.6879,15.9525 -168.8871,29.0249 -71.0054,16.83 -145.7278,12.5775 -203.8093,44.3699 -58.4144,31.9723 -110.8889,81.5397 -159.1018,137.092 -33.8467,39.0148 -54.8639,88.4922 -77.9917,133.8745 -23.2514,45.6073 -52.2089,91.4397 -63.7379,141.502 -11.394,49.4548 -21.78,103.5671 -20.8597,155.4069 0.9022,50.8949 11.0677,103.2072 22.8577,150.412 12.2175,48.9148 59.2649,83.8347 81.8234,127.4395 22.9792,44.4149 40.6912,109.0797 72.9607,146.542"
         style="fill:#ec1c24;fill-opacity:1;fill-rule:nonzero;stroke:none;stroke-width:0.22499947"
         id="path24"
         inkscape:connector-curvature="0" /><path
         d="m 6583.1582,5141.573 c 0,0 3.555,3.8475 10.44,11.3175 3.4649,3.7125 7.7399,8.3474 12.6449,14.0174 4.9275,5.625 10.7325,12.06 16.9875,19.6199 25.335,29.9474 61.1775,75.2623 99.1799,137.7671 18.9225,31.2973 38.3625,66.8472 56.7449,106.8521 4.5225,10.0349 9.2025,20.2274 13.5675,30.8249 1.1025,2.6325 2.2275,5.2874 3.3525,7.9424 l 1.665,3.9375 1.62,4.0725 c 2.16,5.445 4.3425,10.935 6.5475,16.4925 8.4375,22.1624 16.785,45.2473 24.1425,69.5922 0.945,3.015 1.89,6.0525 2.835,9.1125 0.8775,3.0825 1.7775,6.165 2.655,9.2699 1.755,6.21 3.6,12.4425 5.2875,18.765 1.6425,6.3224 3.285,12.7124 4.95,19.1474 1.71,6.4125 3.06,12.9825 4.6125,19.5299 5.985,26.3024 11.3175,53.5273 15.3225,81.6747 4.0724,28.1474 7.2899,57.1723 9.2924,86.9397 1.935,29.7899 2.6325,60.3448 2.07,91.4847 -0.1575,7.8525 -0.27,15.795 -0.6975,23.5799 -0.18,3.915 -0.36,7.8525 -0.5175,11.7675 l -0.27,5.9175 -0.405,5.9399 c -0.585,7.92 -1.035,15.9075 -1.7325,23.895 -0.765,7.9874 -1.53,16.0199 -2.295,24.0749 -3.4649,32.2199 -8.5274,64.8672 -15.2324,97.7171 -13.4325,65.7448 -33.4125,132.4346 -60.9975,198.1343 -13.815,33.0074 -29.3174,65.4073 -46.7774,97.5372 -17.4375,32.1074 -36.8775,63.6072 -58.095,94.3196 -42.6149,61.4023 -92.0474,119.8121 -148.9273,172.9569 -28.1025,26.3699 -58.1624,51.7048 -89.5949,75.3297 -31.4325,23.6925 -64.5749,45.5624 -98.9324,65.7448 -34.3799,20.1824 -70.1099,38.5649 -107.0099,54.7648 l -13.86,6.0525 -1.7325,0.7425 -1.5975,0.675 -3.5549,1.4625 -7.11,2.9025 c -4.725,1.9125 -9.495,3.9375 -14.22,5.7825 l -14.0625,5.3549 c -18.7875,7.1775 -38.1375,13.6575 -57.4649,19.845 -38.8125,12.0824 -78.48,21.8699 -118.6874,29.4299 -10.035,2.025 -20.1825,3.51 -30.2625,5.2199 -10.125,1.665 -20.295,2.9025 -30.465,4.365 -10.1924,1.1475 -20.3624,2.4525 -30.5999,3.42 -10.2375,0.855 -20.4525,2.0025 -30.7125,2.5425 -40.9049,2.5875 -82.8921,4.2975 -122.3031,-0.7425 -10.0485,-1.35 -20.133,-2.475 -30.078,-4.5 -4.9747,-0.9675 -10.0012,-1.6875 -14.9422,-2.835 l -14.8185,-3.42 c -4.9657,-1.0574 -9.8302,-2.4974 -14.7082,-3.8699 -4.8713,-1.4175 -9.774,-2.7225 -14.6228,-4.2075 l -14.4202,-4.8375 -7.2045,-2.4525 -7.083,-2.7675 -14.175,-5.5125 -13.8959,-6.1874 -6.9458,-3.105 c -2.2972,-1.08 -4.536,-2.2725 -6.8062,-3.3975 l -13.5788,-6.8625 c -17.7547,-9.7875 -35.2934,-20.0474 -51.7297,-31.9274 l -6.2234,-4.365 -3.1095,-2.1825 -3.0015,-2.34 -12.0083,-9.3149 c -4.077,-3.015 -7.8052,-6.4575 -11.6842,-9.72 -3.8205,-3.33 -7.7603,-6.525 -11.484,-9.9449 l -11.052,-10.44 -5.2515,-4.9725 -5.436,-5.625 -10.8697,-11.2949 -9.8595,-11.25 c -6.6803,-7.29 -12.7597,-15.5024 -19.089,-23.3549 -1.611,-1.935 -3.0577,-4.005 -4.5247,-6.075 l -4.41,-6.1425 -4.4123,-6.1424 -2.2072,-3.0825 -2.0565,-3.1725 c -5.4248,-8.505 -11.1375,-16.8075 -16.011,-25.6499 -2.4952,-4.365 -5.139,-8.6625 -7.5195,-13.095 l -6.9435,-13.3874 c -1.1407,-2.25 -2.3557,-4.455 -3.438,-6.7275 l -3.1387,-6.84 -6.2843,-13.7024 -5.607,-13.9725 -2.8057,-6.9975 c -0.9113,-2.34 -1.6628,-4.7249 -2.502,-7.0874 l -4.9185,-14.22 c -1.593,-4.7475 -2.8598,-9.585 -4.311,-14.3774 -3.0217,-9.5625 -5.148,-19.35 -7.524,-29.0474 -1.2892,-4.8375 -2.0025,-9.7875 -2.9992,-14.6925 -0.8888,-4.905 -1.9688,-9.7874 -2.7068,-14.7149 l -2.0812,-14.8275 c -0.3353,-2.4525 -0.729,-4.9275 -1.017,-7.4025 l -0.6795,-7.4249 -1.3703,-14.8725 c -0.306,-4.9725 -0.4522,-9.9449 -0.6907,-14.8949 l -0.3263,-7.4475 -0.083,-1.8675 c -0.041,-0.72 -0.036,-0.405 -0.025,-1.4625 l 0.036,-3.825 0.1395,-15.3449 c 0.056,-2.52 -0.043,-5.1975 0.1418,-7.5825 l 0.4837,-7.2675 0.9383,-14.5124 c 0.3802,-4.86 1.134,-9.7875 1.6785,-14.67 0.6502,-4.8824 1.053,-9.7874 1.899,-14.6249 3.2692,-19.4174 7.1572,-38.7224 12.771,-57.4873 10.8382,-37.6874 26.1764,-73.8447 45.3599,-107.5271 19.377,-33.5699 42.507,-64.6648 68.6384,-92.4972 3.303,-3.4425 6.426,-7.065 9.8618,-10.3724 l 10.287,-9.8775 5.1322,-4.95 1.2802,-1.2375 1.188,-1.0575 2.7473,-2.4075 c 3.6472,-3.1725 7.3575,-6.615 10.9192,-9.4274 3.6383,-2.925 7.0718,-5.94 10.8585,-8.775 3.762,-2.835 7.4408,-5.76 11.2568,-8.505 3.8385,-2.7225 7.6702,-5.445 11.4997,-8.1675 3.915,-2.5874 7.8232,-5.1749 11.727,-7.7849 31.6147,-20.1825 65.3782,-36.4724 99.9359,-49.9949 34.5914,-13.4999 69.9861,-24.2324 105.4259,-33.5473 35.4509,-9.315 70.9401,-17.3025 106.0828,-25.1999 17.5725,-4.005 35.055,-7.9875 52.4025,-11.925 8.73,-2.025 17.2125,-4.0275 26.055,-6.2325 8.55,-2.205 17.0324,-4.275 25.5599,-6.5925 8.55,-2.4749 17.1225,-4.7699 25.56,-7.3574 8.37,-2.7 16.7625,-5.175 25.02,-8.0325 4.14,-1.44 8.2575,-2.88 12.3525,-4.32 4.1175,-1.44 8.2125,-2.835 12.2399,-4.4775 4.05,-1.575 8.0775,-3.15 12.105,-4.725 l 6.03,-2.3624 c 1.98,-0.81 3.96,-1.71 5.94,-2.5425 31.725,-13.41 61.92,-29.1374 89.9549,-47.1149 28.035,-17.9549 53.865,-38.1598 77.2874,-59.8948 11.79,-10.7999 22.7925,-22.1399 33.4125,-33.5923 2.5875,-2.925 5.175,-5.8275 7.7625,-8.7075 l 3.87,-4.3425 1.935,-2.16 c 0.36,-0.4275 0.5175,-0.5625 1.0575,-1.2375 l 0.9225,-1.125 c 4.7925,-5.8949 9.585,-11.7449 14.3325,-17.5724 18.8775,-24.1874 35.5049,-48.9373 50.0174,-74.0697 14.3775,-25.2225 26.4375,-50.8274 36.81,-76.2298 2.43,-6.4124 4.86,-12.7799 7.245,-19.1024 1.26,-3.15 2.3175,-6.345 3.3525,-9.54 1.035,-3.195 2.0925,-6.3674 3.1275,-9.5174 1.035,-3.1725 2.07,-6.3225 3.105,-9.45 1.0575,-3.1275 1.8,-6.345 2.7225,-9.495 1.755,-6.3224 3.51,-12.5774 5.2425,-18.7874 1.4399,-6.3 2.8799,-12.5325 4.3199,-18.6974 0.6975,-3.105 1.395,-6.1875 2.0925,-9.2475 0.5625,-3.105 1.125,-6.1875 1.6875,-9.2475 1.1025,-6.1424 2.205,-12.2174 3.285,-18.2474 0.8325,-6.075 1.6425,-12.105 2.4525,-18.0674 0.3825,-2.97 0.7875,-5.94 1.1925,-8.91 0.27,-2.97 0.54,-5.9175 0.7875,-8.865 0.5175,-5.8725 1.035,-11.6999 1.5525,-17.4824 0.405,-5.7825 0.495,-11.52 0.765,-17.2125 0.1125,-2.8349 0.225,-5.6474 0.3375,-8.4599 l 0.1575,-4.2075 v -4.185 c -0.045,-5.58 -0.09,-11.0925 -0.1125,-16.5374 -0.023,-2.745 -0.045,-5.49 -0.068,-8.2125 -0.135,-2.655 -0.2475,-5.3325 -0.3825,-7.965 -0.27,-5.31 -0.3825,-10.5074 -0.81,-15.7274 -0.405,-5.22 -0.8325,-10.3725 -1.2375,-15.48 -2.0025,-20.2949 -4.455,-39.5773 -7.9875,-57.6673 -6.57,-36.2923 -15.8849,-67.9497 -25.4924,-94.8371 -9.63,-26.9099 -19.62,-49.0948 -28.305,-66.7348 -8.8875,-17.5724 -16.3125,-30.6899 -21.51,-39.4198 -5.265,-8.6625 -7.9875,-13.1625 -7.9875,-13.1625 0,0 2.565,4.5675 7.56,13.41 4.9275,8.8649 11.88,22.2299 20.2725,39.9598 8.145,17.8424 17.4825,40.1849 26.3025,67.2073 8.7525,26.9999 17.19,58.6123 22.8599,94.6571 3.06,17.9775 5.0175,37.1474 6.525,57.1948 0.27,5.0175 0.5625,10.08 0.855,15.21 0.27,5.1075 0.27,10.3949 0.4275,15.6824 0.068,2.6325 0.1125,5.31 0.18,7.9875 -0.045,2.6325 -0.09,5.2875 -0.135,7.9425 -0.09,5.3774 -0.18,10.7999 -0.27,16.2899 -1.395,43.8299 -8.1,91.0347 -21.2174,139.882 -1.8225,6.0525 -3.645,12.15 -5.49,18.2924 -0.9675,3.06 -1.755,6.1875 -2.8575,9.225 -1.08,3.06 -2.16,6.12 -3.24,9.2025 -1.0575,3.06 -2.1375,6.1425 -3.24,9.2474 -1.0575,3.105 -2.16,6.21 -3.4425,9.27 -2.475,6.12 -4.95,12.3075 -7.4475,18.5174 -10.6425,24.615 -22.905,49.3874 -37.395,73.6873 -14.6925,24.1649 -31.2074,48.0598 -49.7249,71.0322 -4.8375,5.76 -9.72,11.5425 -14.625,17.3475 l -0.9,1.1025 c -0.045,0.068 -0.5625,0.6075 -0.8325,0.9 l -1.9125,2.07 -3.8025,4.1624 c -2.565,2.7675 -5.13,5.5575 -7.695,8.3475 -10.4625,10.935 -21.3075,21.7799 -32.8724,32.0399 -22.9725,20.6549 -48.1725,39.7349 -75.4875,56.6323 -27.2699,16.8974 -56.6324,31.6124 -87.5249,44.0998 -30.8474,12.465 -63.4274,22.9725 -96.6374,31.6124 -8.3925,2.1825 -17.0099,4.185 -25.5374,6.3 -8.28,1.935 -17.055,3.915 -25.65,5.805 -17.325,3.735 -34.785,7.515 -52.3349,11.2949 -35.2418,7.4925 -71.0932,15.1425 -107.2439,24.21 -36.1372,9.0674 -72.5917,19.6649 -108.6367,33.2548 -36.0247,13.5675 -71.6309,30.3074 -105.2121,51.5249 -4.1535,2.6999 -8.3115,5.4224 -12.4762,8.1449 -4.1153,2.8125 -8.1675,5.715 -12.2603,8.5725 -4.0702,2.88 -8.0077,5.9625 -12.0217,8.955 -4.0095,2.97 -7.929,6.3449 -11.9002,9.4949 -4.0928,3.2175 -7.5353,6.4125 -11.2838,9.6075 l -2.763,2.4075 -1.5705,1.3725 -1.3657,1.2825 -5.4675,5.1975 c -3.645,3.4649 -7.2945,6.9299 -10.9485,10.3949 -3.654,3.465 -6.993,7.2675 -10.5097,10.89 -27.8393,29.2499 -52.5285,61.9648 -73.2847,97.4021 -20.5605,35.5274 -37.1002,73.7548 -48.8925,113.7146 -11.772,40.0049 -18.9067,81.5172 -19.9304,124.1771 l -0.1958,15.3449 -0.05,3.825 c -0.016,0.2475 -0.014,1.8225 0.025,2.385 l 0.077,1.98 0.315,7.92 c 0.2317,5.265 0.378,10.5524 0.6862,15.8174 l 1.395,15.795 0.702,7.9199 c 0.297,2.61 0.6998,5.2425 1.0463,7.875 l 2.1644,15.75 c 0.7695,5.2424 1.8855,10.4399 2.817,15.6599 1.0395,5.1975 1.7978,10.485 3.1388,15.6149 18.378,83.0922 57.4762,162.202 114.2391,227.3842 l 10.791,12.3075 10.8562,11.2949 5.4315,5.6475 c 0.378,0.405 1.4513,1.44 1.6965,1.665 l 1.467,1.395 2.934,2.7675 11.7495,11.0925 c 3.96,3.6675 8.1405,7.0649 12.204,10.6199 4.122,3.465 8.0977,7.1325 12.429,10.35 l 12.7732,9.945 3.1973,2.4749 3.3052,2.34 6.6195,4.6575 c 17.505,12.6675 36.1687,23.6474 55.089,34.0874 l 14.4652,7.335 c 2.4187,1.1925 4.8082,2.475 7.2517,3.6225 l 7.4003,3.3075 14.8117,6.6149 15.111,5.895 7.5577,2.9475 7.6815,2.5875 15.381,5.1525 c 5.1705,1.575 10.3972,2.97 15.5925,4.455 5.1997,1.4624 10.3882,2.9924 15.6825,4.0949 l 15.795,3.645 c 5.2694,1.215 10.6199,2.0025 15.9254,3.015 10.5998,2.115 21.339,3.33 32.0423,4.7475 43.8232,5.355 85.8644,3.375 128.1868,0.7425 10.575,-0.585 21.105,-1.7775 31.6575,-2.655 10.53,-1.035 21.015,-2.3625 31.5224,-3.5775 10.44,-1.5525 20.925,-2.8575 31.3425,-4.59 10.395,-1.8 20.835,-3.375 31.1625,-5.4899 41.3999,-7.9425 82.2599,-18.1575 122.1748,-30.7574 19.9575,-6.435 39.645,-13.1175 59.22,-20.6775 l 14.67,-5.6474 c 4.8375,-1.9125 9.5175,-3.8925 14.2649,-5.85 l 7.0875,-2.9475 3.555,-1.4625 1.9575,-0.8325 1.7775,-0.7875 14.22,-6.3 c 37.8675,-16.9199 74.4749,-36.0899 109.7099,-57.0823 35.2125,-20.9924 69.1199,-43.7173 101.2724,-68.2647 32.1975,-24.5699 62.6399,-50.5574 91.6649,-78.1648 l 5.445,-5.1299 5.2425,-5.175 10.44,-10.305 2.745,-2.7225 2.565,-2.655 5.1525,-5.3324 c 3.4424,-3.555 6.8624,-7.11 10.3049,-10.665 6.66,-7.2675 13.41,-14.4225 19.935,-21.7574 3.24,-3.69 6.48,-7.3575 9.72,-11.0475 3.24,-3.6675 6.4575,-7.3575 9.5625,-11.1149 25.2675,-29.8349 48.6224,-60.7948 70.0424,-92.5197 42.885,-63.4048 77.8274,-130.2296 105.1649,-197.6393 27.3825,-67.4773 47.2725,-135.832 59.8949,-203.1068 6.3225,-33.6599 10.98,-67.0048 13.995,-99.8771 0.6525,-8.2125 1.305,-16.4025 1.9575,-24.5475 0.585,-8.1674 0.9225,-16.2899 1.395,-24.3674 l 0.315,-6.0524 0.18,-6.0525 c 0.1125,-4.05 0.225,-8.0775 0.36,-12.105 0.2925,-8.0774 0.27,-15.9299 0.315,-23.8049 0.09,-31.7024 -1.1025,-62.7298 -3.5325,-92.9472 -2.52,-30.2174 -6.1875,-59.6247 -10.935,-88.0871 -4.635,-28.4849 -10.575,-55.9798 -17.1674,-82.4848 -1.71,-6.6149 -3.195,-13.2299 -5.0625,-19.6874 -1.8225,-6.48 -3.6,-12.9149 -5.4,-19.3049 -1.8225,-6.3675 -3.825,-12.645 -5.715,-18.8774 -0.9675,-3.1275 -1.9125,-6.2325 -2.88,-9.315 -1.0125,-3.0825 -2.0475,-6.1425 -3.06,-9.18 -32.1975,-97.8071 -74.3399,-177.3444 -113.8724,-239.3316 -19.8,-31.0049 -39.0825,-57.6223 -56.6999,-80.0772 -4.32,-5.67 -8.685,-10.98 -12.8475,-16.11 -4.14,-5.1075 -8.1,-10.035 -12.06,-14.6024 -3.9375,-4.6125 -7.6725,-9 -11.2275,-13.185 -3.645,-4.095 -7.11,-7.965 -10.3725,-11.6549 -6.48,-7.38 -12.4875,-13.68 -17.595,-19.1475 -5.085,-5.5125 -9.495,-10.0124 -13.0724,-13.6124 -7.11,-7.245 -10.8,-10.98 -10.8,-10.98"
         style="fill:#262261;fill-opacity:1;fill-rule:nonzero;stroke:none;stroke-width:0.22499947"
         id="path26"
         inkscape:connector-curvature="0" /><path
         d="m 6828.2954,6160.8194 c 40.68,15.4799 166.6573,-57.8698 166.6573,-57.8698 l 13.7925,35.7524 c -15.03,12.1499 -90.9899,53.5273 -179.2348,34.7398 13.41,35.5949 52.6949,109.4846 81.3374,181.4394 l 67.9724,47.1823 v 0 c 0.4725,0.225 0.495,1.1475 0,3.1275 -9.9,40.4324 1.35,199.0793 -65.7674,222.8167 -19.2825,6.8175 -48.7349,4.0725 -75.7124,-1.08 l -10.98,8.1225 c -4.32,3.195 -10.44,2.1375 -13.4325,-2.34 -0.54,-0.8325 -1.1475,-1.71 -1.755,-2.655 -11.52,10.8675 -17.46,23.6699 -20.4525,35.0549 9.1575,31.3649 23.9625,56.0698 28.2825,69.3672 5.6475,17.325 -38.1375,57.5323 -53.3249,68.0398 -18.405,12.7799 -37.17,15.6149 -53.8875,13.8374 -60.9974,0.8775 -96.0074,-35.2123 -109.1249,-25.2224 0,0 -10.8224,-29.6324 13.4775,-39.8248 -2.97,-13.32 -5.6475,-31.5449 -1.6875,-42.9524 6.8625,-19.7099 5.2425,-25.1099 3.015,-33.9298 -3.825,-15.075 -4.5675,-25.335 3.6,-24.255 3.4425,0.45 5.895,0.18 7.5825,-0.2925 2.4075,-5.9174 1.62,-7.1999 0.585,-9.7199 -1.6425,-4.05 3.4875,-6.705 6.9075,-7.9875 -0.8775,0.18 -1.89,0.27 -2.88,0.1125 -2.8575,-0.45 -4.725,-3.0825 -2.5875,-6.21 0.8775,-1.26 2.1825,-0.7875 2.9925,-2.2725 2.4975,-4.4775 3.3075,-11.0474 3.555,-15.6599 0.36,-6.165 11.3175,-10.845 24.39,-4.095 3.96,2.0475 8.9775,3.285 14.5125,3.96 0,0 0.3825,-3.3975 0.023,-9.585 -1.35,-0.2475 -2.6775,-0.7875 -3.87,-1.665 l -20.205,-14.9174 c -21.0375,-3.915 -52.875,-11.5425 -74.8799,-24.5699 -10.6875,-0.585 -21.915,-2.52 -33.2325,-6.4575 -4.95,-1.7325 -18.99,-10.2825 -30.915,-24.0524 -25.8749,-18.63 -76.4099,-53.8198 -76.4099,-53.8198 l -65.7674,-14.85 -49.095,-57.1048 -24.2774,-29.4974 -85.2749,-23.5124 -9.225,-52.0423 23.0625,-11.0925 -20.25,-42.1423 c -1.71,-3.555 -1.125,-7.7625 1.44,-10.7325 l 8.73,-10.0124 c 1.8675,-2.1375 4.5675,-3.375 7.425,-3.375 h 62.1449 c 2.7,0 5.2875,1.125 7.155,3.0825 l 12.0375,12.6899 c 3.24,3.4425 3.6,8.7075 0.8325,12.5325 l -10.08,13.9499 1.575,6.93 h 6.4125 l 76.5224,27.0224 43.4024,10.5075 69.435,47.1148 c 13.4999,-1.3725 27.4499,-1.665 35.7749,-0.045 6.3225,1.2375 16.605,3.7125 27.585,6.5025 7.3575,-16.92 16.7625,-35.7074 23.1075,-52.6948 -22.59,-14.7375 -56.3175,-45.7424 -81.2024,-60.8398 -18.27,-11.0925 -73.8675,-27.1124 -135.8549,-42.2774 l -164.4973,-2.295 -69.4799,-30.4874 -213.6598,-23.7374 -24.8175,-33.1424 c -18.18,-3.5999 -34.6724,-6.9074 -42.6149,-8.5724 -22.8375,-4.815 -105.3494,-24.6599 -105.3494,-24.6599 -12.276,3.2625 -57.3345,-56.2048 -45.837,-66.5998 14.1368,-12.78 44.1765,-25.0199 68.2785,-21.9824 16.4204,2.07 63.3666,22.8599 77.2154,21.7574 13.2075,-1.0575 26.2124,2.745 32.8049,9.8325 5.22,5.6024 13.7475,10.5749 24.12,14.9849 11.4075,-9.4275 21.8025,-13.7249 26.5275,-14.2424 9.3825,-1.035 92.8799,25.4924 96.7499,25.6949 3.87,0.225 122.4223,-5.175 122.4223,-5.175 0,0 14.76,-0.4725 32.7375,-2.52 9.6525,-1.1025 53.6849,1.845 99.9224,6.9975 24.7725,-0.3375 53.3024,1.215 83.1149,7.74 38.0025,8.3249 92.8124,11.3174 146.7898,12.3524 4.6575,-0.9 94.6574,-105.1421 111.4874,-158.3319 -42.5024,24.9299 -151.4023,89.7972 -159.2323,91.2371 -4.0275,0.7425 -10.2825,-3.5324 -17.28,-10.3274 -2.9475,0.54 -6.03,0.855 -9.135,0.8775 -13.68,0.1575 -29.2949,-2.2725 -42.3674,1.1475 -15.84,4.1625 -33.9975,3.8025 -49.95,7.2899 -23.3999,5.1525 -42.8849,-10.6199 -57.8924,-21.9149 -26.8425,-20.1149 -6.5925,-45.2923 16.0875,-41.4223 13.59,2.3175 56.4299,-4.5 92.6999,-17.82 1.5525,-0.5625 3.5775,-1.035 5.985,-1.485 -0.1575,-2.6774 -0.2025,-5.4224 -0.1125,-8.2574 0.6525,-20.2725 -5.8725,-30.2399 -4.23,-32.4899 0,0 127.1248,-77.9172 174.6448,-96.1422 6.0975,-2.34 106.6724,-40.4548 126.4273,-49.8598 l 2.43,-1.2375 c 0,0 126.6974,37.9124 125.9774,57.5548 -0.2025,5.985 -3.4875,18.7199 -7.965,33.5249 -4.59,46.8673 -13.3425,114.2546 -24.39,176.1744 l 9.2475,15.5249 c 0,0 13.635,44.9998 22.3425,85.2297 6.03,-50.2873 2.97,-108.9446 2.97,-108.9446 l 38.115,4.095 c 3.4875,16.7849 5.535,86.8722 -33.9975,151.3119 0.2025,7.7175 -0.765,13.095 -3.3525,14.805 v 0 c 0.023,0.068 0.045,0.135 0.045,0.18 1.0125,0.36 2.0475,0.72 3.06,1.1025"
         style="fill:#070145;fill-opacity:1;fill-rule:nonzero;stroke:none;stroke-width:0.22499947"
         id="path28"
         inkscape:connector-curvature="0" /><path
         d="m 5000.3659,6632.0577 c 0,0 -3.744,-4.05 -10.9958,-11.9025 -1.8134,-1.9574 -3.8452,-4.1624 -6.0929,-6.5924 -2.2343,-2.4525 -4.6035,-5.1975 -7.2203,-8.145 -5.202,-5.94 -11.322,-12.7125 -17.9235,-20.6549 -26.6894,-31.5224 -64.4646,-79.1997 -104.5326,-145.012 -19.9327,-32.9399 -40.4257,-70.3573 -59.8162,-112.4771 -4.7565,-10.575 -9.7065,-21.3074 -14.2942,-32.4449 -1.179,-2.7675 -2.3603,-5.5575 -3.5483,-8.37 l -1.755,-4.14 -1.7032,-4.2974 c -2.2793,-5.7375 -4.5788,-11.52 -6.8963,-17.3475 -8.8987,-23.3549 -17.7029,-47.6548 -25.4677,-73.2822 -0.999,-3.195 -2.0002,-6.39 -3.006,-9.6075 -0.9292,-3.24 -1.8607,-6.5025 -2.7967,-9.7649 -1.8405,-6.525 -3.7935,-13.095 -5.58,-19.755 -1.7235,-6.6825 -3.4605,-13.4099 -5.211,-20.1824 -1.8135,-6.75 -3.2333,-13.6575 -4.887,-20.5649 -6.3068,-27.6749 -11.9407,-56.3623 -16.1797,-86.0172 -4.2998,-29.6324 -7.6883,-60.1873 -9.828,-91.5522 -2.0318,-31.3874 -2.7878,-63.5623 -2.1983,-96.3672 0.162,-8.2799 0.261,-16.6274 0.7133,-24.8399 0.1845,-4.1175 0.3667,-8.2574 0.5512,-12.3974 l 0.2745,-6.2325 0.4275,-6.255 c 0.6143,-8.3474 1.071,-16.7624 1.8203,-25.1774 0.7987,-8.415 1.602,-16.8749 2.4075,-25.3574 3.636,-33.9299 8.9527,-68.3323 16.0019,-102.9596 14.112,-69.2323 35.154,-139.522 64.1902,-208.7318 14.5418,-34.7624 30.8655,-68.9172 49.2592,-102.7796 18.3375,-33.8174 38.8102,-67.0048 61.1617,-99.3822 44.8717,-64.6872 96.9569,-126.247 156.8608,-182.2493 29.619,-27.7874 61.2855,-54.4948 94.3874,-79.3797 33.1245,-24.9524 68.031,-48.0149 104.2402,-69.2998 36.2249,-21.2624 73.8606,-40.6348 112.7473,-57.7123 l 14.6048,-6.3675 1.8247,-0.81 1.6785,-0.6975 3.7395,-1.53 7.488,-3.0599 c 4.9838,-2.025 10.0013,-4.14 14.9693,-6.0975 l 14.8387,-5.6475 c 19.7932,-7.56 40.1647,-14.3999 60.5317,-20.9024 40.8937,-12.7575 82.7031,-23.0849 125.0773,-31.0274 10.566,-2.16 21.2468,-3.7125 31.8892,-5.5125 10.6515,-1.755 21.3818,-3.06 32.0783,-4.6125 10.7415,-1.1925 21.4717,-2.565 32.2469,-3.6 10.7843,-0.9 21.5505,-2.115 32.373,-2.6775 43.0897,-2.7224 87.3089,-4.5224 128.9204,0.7875 10.5974,1.4175 21.2399,2.61 31.7249,4.7475 5.2425,1.0125 10.5525,1.7775 15.75,2.97 l 15.6375,3.6225 c 5.2425,1.1025 10.3725,2.6325 15.5025,4.095 5.1525,1.485 10.305,2.8575 15.4349,4.41 l 15.21,5.1075 7.5825,2.5874 7.47,2.925 14.9625,5.8275 14.6475,6.525 7.335,3.2625 c 2.4075,1.125 4.77,2.385 7.1775,3.5775 l 14.31,7.2224 c 18.7199,10.3275 37.2149,21.15 54.5624,33.6824 l 6.57,4.6125 3.2625,2.295 3.1725,2.475 12.6675,9.8325 c 4.2975,3.1724 8.235,6.7949 12.3075,10.2374 4.0274,3.51 8.1899,6.885 12.1274,10.5075 l 11.655,10.9799 5.535,5.265 5.7375,5.94 11.43,11.88 10.4175,11.8799 c 7.0425,7.695 13.455,16.3575 20.1375,24.6374 1.6875,2.0475 3.2175,4.23 4.77,6.39 l 4.6575,6.48 4.635,6.5025 2.34,3.2399 2.1599,3.3525 c 5.7375,8.955 11.745,17.73 16.8975,27.0224 2.6325,4.6125 5.4,9.1575 7.92,13.815 l 7.3125,14.1524 c 1.215,2.3625 2.4975,4.68 3.645,7.065 l 3.3075,7.245 6.615,14.4449 5.9175,14.7375 2.9475,7.3575 c 0.9675,2.4749 1.755,4.9949 2.655,7.4924 l 5.175,14.985 c 1.6875,4.995 3.015,10.1249 4.545,15.1649 3.195,10.08 5.4225,20.4074 7.9425,30.6449 1.35,5.085 2.0925,10.305 3.15,15.48 0.945,5.1749 2.07,10.3274 2.8575,15.5249 l 2.1825,15.6149 c 0.36,2.61 0.7875,5.1975 1.08,7.8075 l 0.72,7.8525 1.44,15.6824 c 0.315,5.2425 0.4725,10.485 0.72,15.705 l 0.36,7.8525 0.068,1.9799 c 0.045,0.7425 0.045,0.4725 0.045,1.5525 l -0.045,4.0275 -0.1575,16.155 c -0.045,2.655 0.045,5.4674 -0.135,7.9874 l -0.5175,7.6725 -0.99,15.3225 c -0.405,5.1299 -1.215,10.3049 -1.7775,15.4574 -0.6975,5.1525 -1.125,10.35 -2.0025,15.4574 -3.465,20.4525 -7.56,40.8149 -13.4775,60.6148 -11.4525,39.7349 -27.63,77.8498 -47.8575,113.3771 -20.43,35.3924 -44.8424,68.1748 -72.3824,97.5147 -3.4875,3.645 -6.795,7.4475 -10.4175,10.9349 -3.6225,3.465 -7.2225,6.9525 -10.845,10.4175 l -5.4,5.22 -1.3725,1.305 -1.2375,1.1025 -2.9025,2.5425 c -3.8475,3.33 -7.74,6.9749 -11.5199,9.9449 -3.825,3.06 -7.4475,6.255 -11.4525,9.2475 -3.96,2.9925 -7.8525,6.075 -11.8575,8.9775 -4.0725,2.8575 -8.0775,5.7824 -12.15,8.5949 -4.1175,2.7225 -8.235,5.4675 -12.3525,8.19 -33.345,21.3074 -68.9399,38.4749 -105.3674,52.6948 -36.4499,14.22 -73.7549,25.5374 -111.0824,35.3249 -37.3477,9.7875 -74.7224,18.2024 -111.7191,26.5049 -18.5017,4.14 -36.9089,8.28 -55.1812,12.5325 -9.1912,2.1374 -18.117,4.2524 -27.4252,6.5474 -9.0022,2.34 -17.9235,4.5 -26.901,6.9525 -8.9977,2.5875 -18.0269,5.0175 -26.8919,7.7175 -8.8133,2.835 -17.6558,5.445 -26.3453,8.4375 -4.3402,1.5299 -8.6692,3.0374 -12.9914,4.5449 -4.32,1.53 -8.649,2.97 -12.8813,4.7025 -4.2502,1.665 -8.4915,3.33 -12.726,4.9725 l -6.3405,2.4975 c -2.1015,0.855 -4.1715,1.7775 -6.2527,2.6775 -33.3787,14.0849 -65.1532,30.5999 -94.6462,49.5223 -29.5087,18.8774 -56.6976,40.1174 -81.3419,62.9773 -6.0817,5.805 -12.3547,11.3399 -18.0314,17.4149 -2.898,2.97 -5.7893,5.94 -8.6715,8.8875 l -4.3155,4.4325 c -1.4288,1.485 -2.7563,3.06 -4.1355,4.59 -2.7338,3.0599 -5.4608,6.1199 -8.1788,9.1574 l -4.0725,4.5675 -2.0295,2.2725 c -0.387,0.45 -0.5625,0.6075 -1.1272,1.305 l -0.9495,1.1475 c -5.0648,6.21 -10.1002,12.3749 -15.1065,18.5174 -19.8652,25.4249 -37.3815,51.4798 -52.6634,77.8947 -15.1358,26.55 -27.828,53.4824 -38.7697,80.2123 -2.565,6.7499 -5.112,13.4324 -7.641,20.0924 -1.3208,3.3075 -2.4323,6.6825 -3.5168,10.035 -1.1025,3.3524 -2.2005,6.6824 -3.2962,10.0124 -1.0935,3.33 -2.1825,6.66 -3.267,9.945 -1.1205,3.3075 -1.9193,6.6825 -2.8868,9.9899 -1.8517,6.6375 -3.69,13.23 -5.5125,19.7775 -1.53,6.615 -3.0465,13.1624 -4.5517,19.6649 -0.7425,3.2625 -1.4828,6.5025 -2.2185,9.7425 -0.594,3.24 -1.1858,6.4799 -1.7753,9.7199 -1.17,6.4575 -2.331,12.87 -3.4807,19.1925 -0.864,6.4124 -1.7212,12.7349 -2.5695,19.0124 -0.4252,3.15 -0.846,6.2775 -1.2667,9.3825 -0.2835,3.1275 -0.5648,6.2324 -0.846,9.3374 -0.5468,6.1875 -1.089,12.33 -1.6245,18.405 -0.4388,6.0749 -0.5445,12.1274 -0.828,18.0899 -0.1193,2.9925 -0.2385,5.9625 -0.3578,8.9325 l -0.1777,4.41 0.014,4.4099 c 0.036,5.8725 0.07,11.655 0.1035,17.415 0.023,2.88 0.045,5.76 0.068,8.6174 0.1282,2.8125 0.2565,5.625 0.3847,8.415 0.2948,5.58 0.414,11.0475 0.8483,16.5375 0.4342,5.4899 0.8617,10.9349 1.287,16.2899 2.1037,21.3749 4.671,41.6699 8.3722,60.7273 6.8962,38.1823 16.6837,71.5047 26.7795,99.8321 10.116,28.3499 20.6302,51.6823 29.7449,70.2898 9.3398,18.4949 17.1473,32.3099 22.626,41.4898 5.5328,9.1575 8.3903,13.8825 8.3903,13.8825 0,0 -2.7113,-4.815 -7.9673,-14.1075 -5.2087,-9.3374 -12.5392,-23.3999 -21.3795,-42.0748 -8.5927,-18.765 -18.4409,-42.2999 -27.7402,-70.7398 -9.2362,-28.4174 -18.1575,-61.6947 -24.147,-99.6746 -3.2332,-18.9449 -5.3122,-39.1049 -6.9097,-60.2323 -0.2948,-5.265 -0.5963,-10.5975 -0.9,-15.9974 -0.306,-5.4 -0.3015,-10.9575 -0.4703,-16.5375 -0.063,-2.7675 -0.1282,-5.58 -0.1935,-8.3925 0.045,-2.7899 0.09,-5.5799 0.1328,-8.3699 0.097,-5.67 0.1935,-11.385 0.2902,-17.1675 1.4288,-46.1698 8.4713,-95.9171 22.266,-147.3519 1.908,-6.3675 3.8318,-12.8025 5.7713,-19.2825 1.0102,-3.2175 1.8495,-6.5249 3.0082,-9.7199 1.1273,-3.2175 2.2568,-6.4575 3.3908,-9.675 1.1317,-3.24 2.2702,-6.5025 3.411,-9.765 1.1205,-3.2625 2.2702,-6.5474 3.627,-9.7649 2.5987,-6.4575 5.2132,-12.96 7.8479,-19.5075 11.2005,-25.9424 24.0953,-52.0423 39.3503,-77.6472 15.4619,-25.4924 32.8567,-50.6698 52.3619,-74.8797 5.0985,-6.0525 10.224,-12.15 15.381,-18.2925 l 0.9652,-1.1474 c 0.061,-0.09 0.594,-0.6525 0.8685,-0.945 l 2.0093,-2.1825 4.0275,-4.3875 c 2.6887,-2.925 5.382,-5.85 8.0865,-8.7975 1.3635,-1.4625 2.6752,-2.97 4.086,-4.3875 l 4.257,-4.23 c 2.8394,-2.8349 5.6902,-5.6924 8.5454,-8.5274 5.5958,-5.8275 11.7608,-11.0925 17.7323,-16.6275 24.2054,-21.7799 50.7689,-41.9173 79.5306,-59.7148 28.7505,-17.8424 59.67,-33.3448 92.2274,-46.5298 32.5125,-13.1399 66.8182,-24.2099 101.8282,-33.3224 8.8267,-2.295 17.8965,-4.41 26.8852,-6.6374 8.7345,-2.07 17.9617,-4.14 27.0045,-6.1425 18.1912,-4.0275 36.5782,-7.965 55.1227,-11.9025 37.0912,-7.92 74.8304,-15.9749 112.8643,-25.5149 38.0475,-9.5625 76.3875,-20.7224 114.2999,-35.0324 37.89,-14.2649 75.3524,-31.9049 110.6549,-54.2023 4.365,-2.8575 8.73,-5.715 13.1175,-8.5724 4.32,-2.9475 8.5725,-6.0075 12.87,-9 4.2975,-3.0375 8.415,-6.3 12.6449,-9.4275 4.2075,-3.1275 8.325,-6.66 12.51,-9.9899 4.2975,-3.375 7.92,-6.7275 11.8575,-10.1025 l 2.925,-2.52 1.6425,-1.44 1.4175,-1.35 5.76,-5.4675 c 3.825,-3.645 7.6725,-7.2899 11.4975,-10.9349 3.8475,-3.645 7.3575,-7.6275 11.0475,-11.4525 29.2725,-30.7574 55.2374,-65.1598 77.0399,-102.4196 21.6225,-37.3499 39.015,-77.5572 51.3899,-119.5646 12.375,-42.0748 19.8675,-85.7247 20.925,-130.5445 l 0.225,-16.155 0.045,-4.0275 c 0.023,-0.27 0.023,-1.89 -0.023,-2.4975 l -0.09,-2.0699 -0.3375,-8.325 c -0.225,-5.535 -0.3825,-11.0925 -0.72,-16.6275 l -1.4625,-16.6049 -0.7425,-8.325 c -0.315,-2.7675 -0.7425,-5.5124 -1.1025,-8.2799 l -2.2725,-16.56 c -0.81,-5.5125 -1.98,-10.9799 -2.97,-16.4699 -1.08,-5.4675 -1.89,-11.0025 -3.285,-16.425 -19.3274,-87.3447 -60.4574,-170.5044 -120.1048,-239.0166 -3.78,-4.32 -7.56,-8.7075 -11.34,-12.915 l -11.43,-11.9024 -5.7375,-5.94 c -0.3825,-0.45 -1.485,-1.5075 -1.755,-1.755 l -1.5525,-1.4625 -3.0825,-2.9025 -12.3525,-11.6774 c -4.1625,-3.8475 -8.55,-7.425 -12.825,-11.16 -4.3425,-3.645 -8.5275,-7.4925 -13.0725,-10.8675 l -13.4324,-10.4624 -3.3525,-2.61 -3.4875,-2.4525 -6.9525,-4.905 c -18.405,-13.3199 -38.025,-24.8624 -57.915,-35.8199 l -15.2099,-7.7174 c -2.5425,-1.26 -5.04,-2.5875 -7.6275,-3.8025 l -7.7625,-3.4875 -15.57,-6.9525 -15.885,-6.1875 -7.9425,-3.0824 -8.0775,-2.745 -16.1775,-5.4 c -5.445,-1.665 -10.9349,-3.1275 -16.4024,-4.7025 -5.445,-1.53 -10.9125,-3.1275 -16.47,-4.2975 l -16.605,-3.8475 c -5.535,-1.26 -11.16,-2.0925 -16.74,-3.15 -11.16,-2.2275 -22.4325,-3.51 -33.6825,-4.9949 l -4.2299,-0.5625 c -1.4175,-0.135 -2.8575,-0.2475 -4.2975,-0.36 l -8.595,-0.72 -8.6063,-0.6975 c -2.8485,-0.2025 -5.7937,-0.5175 -8.4937,-0.5625 l -16.5082,-0.5625 -4.1288,-0.135 -2.061,-0.068 c -0.5512,-0.045 -2.5515,-0.023 -2.6977,-0.023 l -8.37,0.1575 -16.7355,0.27 c -5.5755,0.1125 -11.1442,0.4275 -16.7152,0.63 -5.571,0.27 -11.1465,0.405 -16.7085,0.765 l -16.6815,1.08 c -11.1262,0.6075 -22.2007,1.8675 -33.2932,2.8124 -11.079,1.0575 -22.1175,2.475 -33.1627,3.7575 -11.0025,1.62 -22.032,2.9925 -32.985,4.815 -10.9462,1.89 -21.9217,3.555 -32.787,5.7825 -43.5667,8.325 -86.5416,19.1024 -128.5491,32.3324 -20.9857,6.795 -41.7104,13.8149 -62.3002,21.7574 l -15.4417,5.94 c -5.0737,2.0025 -10.0012,4.1175 -15.0052,6.165 l -7.4768,3.0825 -3.735,1.5524 -2.0475,0.855 -1.8742,0.8325 -14.9625,6.6375 c -39.8362,17.7975 -78.3764,37.9574 -115.4406,60.0298 -37.0507,22.0949 -72.7357,45.9898 -106.5644,71.8197 -33.8872,25.8525 -65.9272,53.1899 -96.4664,82.2148 l -5.724,5.3999 -5.5147,5.445 c -3.6743,3.6225 -7.3463,7.245 -11.0115,10.8675 l -2.862,2.835 -2.7158,2.8125 -5.427,5.6024 c -3.6134,3.735 -7.2224,7.47 -10.8292,11.205 -7.0087,7.65 -14.121,15.1874 -20.9947,22.9049 -3.411,3.87 -6.8175,7.74 -10.2195,11.61 -3.4223,3.87 -6.7995,7.7399 -10.0665,11.7224 -26.5972,31.3649 -51.1717,63.9223 -73.7099,97.3347 -45.1575,66.6897 -81.9494,136.9795 -110.7359,207.9217 -28.8337,71.0098 -49.7722,142.9195 -63.0944,213.7268 -6.669,35.4149 -11.565,70.5147 -14.7578,105.0971 -0.693,8.6625 -1.3815,17.2799 -2.07,25.8524 -0.6345,8.5725 -0.9742,17.1225 -1.4737,25.6274 l -0.3398,6.3675 -0.1912,6.39 c -0.126,4.23 -0.2498,8.4824 -0.3735,12.7124 -0.3353,8.505 -0.3105,16.785 -0.351,25.0649 -0.108,33.3674 1.1407,66.0148 3.6697,97.8297 2.6438,31.7924 6.4958,62.7523 11.4705,92.7222 4.8623,29.9699 11.1128,58.9273 18.0248,86.8272 1.8045,6.9524 3.3727,13.9274 5.337,20.7224 1.8989,6.8175 3.7844,13.5899 5.6542,20.3174 1.9327,6.705 4.0342,13.2975 6.0187,19.8674 1.008,3.285 2.0138,6.57 3.0128,9.81 1.0777,3.24 2.151,6.4575 3.2197,9.675 33.8512,102.9371 78.1492,186.7268 119.7472,251.9991 20.8124,32.6474 41.1074,60.6598 59.6226,84.3297 4.5383,5.985 9.1395,11.5649 13.509,16.9649 4.374,5.3775 8.532,10.575 12.7058,15.39 4.122,4.8374 8.0549,9.4724 11.7967,13.8824 3.8362,4.32 7.4745,8.3925 10.9147,12.2625 6.8153,7.8074 13.1288,14.4224 18.5175,20.1824 2.7068,2.88 5.1593,5.5575 7.4655,7.9425 2.3198,2.3625 4.4168,4.4999 6.2887,6.4124 7.4835,7.6275 11.3468,11.565 11.3468,11.565"
         style="fill:#be1e2d;fill-opacity:1;fill-rule:nonzero;stroke:none;stroke-width:0.22499947"
         id="path30"
         inkscape:connector-curvature="0" /><path
         d="m 5965.2638,6502.3232 -14.2874,18.3824 c -4.455,5.76 -12.2625,7.74 -18.945,4.815 l -44.82,-19.5749 -93.0216,-87.0747 c -12.1973,-0.45 -22.3898,-1.395 -24.165,-1.8675 0,0 -95.5821,-78.1198 -125.4216,-110.6096 -29.5537,-32.1974 -188.6061,-128.3171 -232.3573,-165.7569 -46.3207,-24.66 -95.9061,-50.7374 -95.9061,-50.7374 0,0 -11.9565,0.7875 -27.1102,-16.9649 5.472,13.5449 8.4915,24.5924 6.696,27.8774 -4.7745,8.73 -16.0178,35.8874 -35.19,32.3549 -19.1745,-3.5325 -51.6599,20.1149 -78.2594,20.2949 -26.6017,0.2025 -45.1237,-5.13 -84.8902,2.25 -39.7642,7.38 -80.0594,-11.475 -88.4226,-18.0899 -14.2988,-11.34 -25.641,-24.345 -34.677,-37.6649 -0.025,-0.023 -0.047,-0.045 -0.072,-0.067 -4.617,-4.1625 -10.575,-12.0375 -16.965,-21.6224 -0.079,4.86 -0.8797,9.5174 -2.3377,14.6474 -2.124,6.03 -3.2108,12.42 -4.5563,18.6525 -0.8617,3.9824 -4.1895,3.6449 -5.7465,6.7949 -0.9697,1.98 -1.0102,4.32 -1.638,6.4125 -0.8685,2.88 -1.5862,5.31 -2.3444,10.35 -0.3848,2.565 -0.7133,5.1525 -0.9473,7.7399 -0.3465,3.78 -0.522,7.65 -1.9237,11.205 l -0.2498,0.6975 c -0.144,0.9675 -0.2992,1.9575 -0.4882,2.97 -8.9033,47.9698 -54.5332,45.3823 -71.415,45.7198 -16.8839,0.3375 -38.2454,-0.675 -74.5536,-28.5299 -6.5565,-5.0175 -7.9043,-13.5899 -7.9358,-19.6649 -8.253,-7.0425 -16.2202,-19.1924 -13.6507,-39.1724 0.351,-3.015 0.9697,-6.0074 1.7617,-8.9999 l 0.016,-0.045 c 0.07,-0.2475 0.1417,-0.54 0.2115,-0.81 2.5447,-9.675 5.5125,-19.3275 9.5715,-28.4849 2.61,-5.895 8.7457,-12.42 7.6927,-19.215 -0.052,-0.315 -0.09,-0.6525 -0.1147,-0.9675 -0.5715,-7.4474 5.5417,-13.7249 8.2845,-20.2274 4.9432,-11.6999 6.3562,-12.7124 12.4537,-18.5399 0.1665,-0.1575 0.3397,-0.315 0.5107,-0.4725 0.549,-0.675 1.1138,-1.3725 1.71,-2.025 4.1265,-4.5675 7.6703,-4.275 12.3525,-8.28 4.5203,-6.7275 13.0545,-20.6549 17.3903,-25.4699 1.4535,-1.62 2.9857,-3.1725 4.5832,-4.6575 -0.1507,-2.295 -0.1147,-4.5675 0.2115,-6.6149 -15.6757,-16.83 -31.6935,-35.3474 -36.477,-45.5399 -0.011,-0.023 -0.02,-0.045 -0.032,-0.068 -9.4072,-11.6099 -17.9369,-25.1999 -24.1627,-40.9723 -3.6405,-9.2025 -9.5647,-50.1074 7.695,-83.4522 17.2597,-33.3674 17.496,-51.2774 24.822,-74.8798 7.326,-23.5799 37.0844,-46.1023 39.1004,-64.1022 2.0138,-18 29.178,-20.6775 38.2275,-22.59 1.3185,-0.27 3.4965,0.4275 6.2595,1.8675 v -0.023 l 0.036,0.045 c 7.5735,3.9375 19.6447,13.455 31.4865,24.4349 l 61.6184,47.7899 21.4515,43.6273 71.3721,-12.3524 68.7487,-7.065 c 4.5023,-21.3749 4.374,-49.7923 -26.4172,-53.7523 -99.7221,-12.8025 -210.2758,-47.4074 -220.097,-65.8798 l 67.3199,2.475 c 0,0 81.4252,38.8124 126.2181,40.5449 30.582,1.17 63.855,20.4074 75.5977,51.0973 9.5107,-21.0599 13.3875,-47.0024 -6.0413,-69.8173 -41.1637,-48.3748 -82.3634,-89.3697 -78.4079,-115.3121 l 55.764,4.2075 c 0,0 -1.6245,87.0072 42.1537,122.3096 28.7324,23.1749 42.3247,49.4998 30.2512,77.3097 l 20.8687,-2.16 c 0,0 7.929,-39.0148 7.929,-44.3023 0,-1.8675 3.9465,-10.44 9.054,-20.745 1.062,-20.4299 3.3277,-39.1723 6.1447,-51.6823 5.7285,-25.4024 5.382,-86.4672 9.0473,-151.4244 3.2175,-57.0598 11.2387,-118.7321 5.8207,-140.017 -11.5875,-45.5624 -21.1229,-119.1596 -21.1229,-119.1596 1.6132,-4.8375 -3.339,-63.8998 2.529,-73.8672 2.7719,-4.725 6.3494,-8.7975 10.4804,-12.3075 -4.1377,-18.3824 -8.8087,-38.8124 -20.5064,-47.5648 -23.3775,-17.505 -55.5367,-26.9099 -65.961,-27.2699 -17.3812,-0.5625 -28.5614,-22.275 -5.634,-33.1199 12.8363,-6.075 29.664,-14.805 46.2105,-7.4475 11.2747,5.0175 24.786,7.515 35.8919,12.9825 7.1168,3.51 17.397,-3.3525 23.7578,-6.0075 10.2217,-4.275 22.9162,-4.2525 31.1692,4.095 5.7915,5.85 4.1062,13.8374 4.689,21.3974 0.6727,8.7075 2.0902,17.3474 3.9352,25.8749 2.736,12.645 6.417,25.0424 10.593,37.2824 16.1775,-0.2475 28.7415,2.34 30.2152,5.5125 3.8115,8.2124 16.8233,142.4469 17.8133,146.0244 0.99,3.5775 9.5692,26.7074 9.5692,26.7074 0,0 10.206,25.3349 17.5612,41.0624 7.353,15.7274 20.412,45.4723 28.431,93.6447 8.4892,50.9848 15.2415,118.102 20.106,170.8868 l 9.3465,21.8025 c 0,0 -1.17,28.9799 -0.9068,63.6072 0.2745,0.405 0.2498,0.72 0.01,0.9225 0.3443,41.6249 2.7833,91.0122 11.8013,107.8872 9.8752,18.4724 13.2929,103.3196 14.4382,169.1094 67.7272,47.8123 118.1924,131.3095 150.5968,154.6869 37.1722,26.8424 107.4959,110.9246 116.0752,124.7846 8.5792,13.8599 22.8217,30.1499 22.8217,30.1499 0,0 23.1907,13.9949 25.5015,16.6274 2.3107,2.61 47.6617,87.7722 52.1616,94.9947 2.88,4.6349 1.26,8.8649 -5.3999,20.7674 l 14.3774,24.2099 16.0875,-12.285 c 4.455,-3.4199 10.2825,-4.4999 15.66,-2.9025 l 16.8525,4.995 c 7.2,2.1375 13.0725,7.425 15.9525,14.355 l 12.42,29.9249 17.8424,29.6999 c 5.535,9.2249 4.8375,20.9024 -1.755,29.4074"
         style="fill:#3f0104;fill-opacity:1;fill-rule:nonzero;stroke:none;stroke-width:0.22499947"
         id="path32"
         inkscape:connector-curvature="0" /></g></g></svg>